<svg width="256" height="256" viewBox="0 0 256 256" fill="none" xmlns="http://www.w3.org/2000/svg">
  <rect width="256" height="256" rx="56" fill="#111111"/>
  <path d="M70 150C70 122.386 92.3858 100 120 100H140C167.614 100 190 122.386 190 150V170H70V150Z" fill="white"/>
  <circle cx="106" cy="126" r="7" fill="#111111"/>
  <circle cx="150" cy="126" r="7" fill="#111111"/>
  <path d="M86 90C90 72 106 58 126 58C146 58 162 72 166 90" stroke="white" stroke-width="12" stroke-linecap="round"/>
  <path d="M62 112L36 96" stroke="white" stroke-width="12" stroke-linecap="round"/>
  <path d="M194 112L220 96" stroke="white" stroke-width="12" stroke-linecap="round"/>
  <path d="M76 164C90 178 104 184 128 184C152 184 166 178 180 164" stroke="#111111" stroke-width="10" stroke-linecap="round"/>
</svg>
